<svg width="32" height="32" viewBox="0 0 32 32" fill="none" xmlns="http://www.w3.org/2000/svg">
<path d="M21 16C21 18.7614 18.7614 21 16 21C13.2386 21 11 18.7614 11 16C11 13.2386 13.2386 11 16 11C18.7614 11 21 13.2386 21 16Z" stroke="black" stroke-width="2" stroke-linecap="round" stroke-linejoin="round"/>
<path d="M17.5077 1.10008C17.1647 1 16.7765 1 16 1C15.2235 1 14.8353 1 14.4923 1.10008C13.9903 1.24656 13.5468 1.54679 13.2244 1.95851C13.0041 2.23979 12.8599 2.60027 12.5715 3.32119C12.157 4.35753 11.0066 4.89118 9.94762 4.53833L8.99631 4.22135C8.32149 3.99641 7.98408 3.88394 7.65327 3.86466C7.16732 3.83635 6.68367 3.95053 6.26168 4.19317C5.97442 4.35835 5.72293 4.60984 5.21994 5.11283C4.68536 5.64741 4.41807 5.91471 4.24826 6.21981C3.99879 6.66807 3.89325 7.18223 3.94598 7.69251C3.98187 8.03984 4.12225 8.39081 4.40303 9.09276C4.84275 10.1921 4.41973 11.448 3.40453 12.0572L2.94202 12.3348C2.23385 12.7597 1.87977 12.9721 1.62257 13.2646C1.39497 13.5235 1.22335 13.8266 1.11849 14.1549C1 14.526 1 14.943 1 15.7771C1 16.7648 1 17.2586 1.1577 17.6813C1.29705 18.0548 1.52369 18.3895 1.81873 18.6576C2.15263 18.961 2.60658 19.1426 3.51444 19.5058C4.44223 19.8769 4.91993 20.9069 4.60394 21.8549L4.24536 22.9306C3.99698 23.6757 3.87279 24.0483 3.8615 24.4143C3.84791 24.8544 3.95081 25.2903 4.15979 25.6779C4.33359 26.0003 4.6113 26.278 5.16667 26.8333C5.72205 27.3887 5.99974 27.6664 6.32209 27.8402C6.70966 28.0492 7.14556 28.1521 7.58567 28.1385C7.95171 28.1272 8.32427 28.003 9.0694 27.7546L9.9477 27.4619C11.0066 27.1089 12.157 27.6425 12.5715 28.6788C12.8599 29.3997 13.0041 29.7602 13.2244 30.0415C13.5468 30.4532 13.9903 30.7534 14.4923 30.8999C14.8353 31 15.2235 31 16 31C16.7765 31 17.1647 31 17.5077 30.8999C18.0097 30.7534 18.4532 30.4532 18.7756 30.0415C18.9959 29.7602 19.1401 29.3997 19.4285 28.6788C19.843 27.6425 20.9935 27.109 22.0522 27.4621L22.9299 27.7548C23.675 28.0031 24.0476 28.1273 24.4136 28.1386C24.8538 28.1522 25.2896 28.0493 25.6772 27.8403C25.9996 27.6665 26.2773 27.3888 26.8326 26.8335C27.388 26.2781 27.6657 26.0004 27.8395 25.678C28.0485 25.2905 28.1514 24.8546 28.1378 24.4145C28.1265 24.0484 28.0023 23.6758 27.754 22.9307L27.3956 21.8556C27.0795 20.9073 27.5574 19.877 28.4856 19.5058C29.3934 19.1426 29.8474 18.961 30.1813 18.6576C30.4763 18.3895 30.703 18.0548 30.8423 17.6813C31 17.2586 31 16.7648 31 15.7771C31 14.943 31 14.526 30.8815 14.1549C30.7767 13.8266 30.605 13.5235 30.3774 13.2646C30.1202 12.9721 29.7661 12.7597 29.058 12.3348L28.5949 12.0569C27.5796 11.4478 27.1566 10.1919 27.5963 9.09263C27.877 8.39071 28.0174 8.03971 28.0533 7.69239C28.1061 7.1821 28.0005 6.66794 27.7511 6.21969C27.5812 5.91458 27.314 5.64729 26.7794 5.1127C26.2764 4.60973 26.0249 4.35822 25.7376 4.19305C25.3156 3.9504 24.832 3.83623 24.346 3.86454C24.0152 3.88381 23.6778 3.99628 23.003 4.22122L22.0523 4.53812C20.9934 4.89107 19.843 4.35749 19.4285 3.32119C19.1401 2.60026 18.9959 2.23979 18.7756 1.95851C18.4532 1.54679 18.0097 1.24656 17.5077 1.10008Z" stroke="black" stroke-width="2" stroke-linecap="round" stroke-linejoin="round"/>
</svg>
