<svg width="22" height="17" viewBox="0 0 22 17" fill="none" xmlns="http://www.w3.org/2000/svg">
<path d="M10.699 5.82143L16.4218 11.1786M16.4218 5.82143L10.699 11.1786M2.1238 10.5942L5.47898 14.6656C5.88245 15.1552 6.08419 15.4 6.3375 15.5764C6.56188 15.7327 6.81494 15.8491 7.08416 15.92C7.3881 16 7.71838 16 8.37894 16H17.3374C18.6194 16 19.2605 16 19.7501 15.7664C20.1808 15.561 20.531 15.2332 20.7505 14.83C21 14.3716 21 13.7715 21 12.5714V4.42857C21 3.22846 21 2.6284 20.7505 2.17002C20.531 1.76682 20.1808 1.439 19.7501 1.23356C19.2605 1 18.6194 1 17.3374 1H8.37894C7.71838 1 7.3881 1 7.08416 1.08C6.81494 1.15087 6.56188 1.26732 6.3375 1.42358C6.08419 1.59998 5.88245 1.84478 5.47898 2.33439L2.1238 6.40582C1.50619 7.15526 1.19739 7.52999 1.07861 7.94325C0.973796 8.30793 0.973796 8.69207 1.07861 9.05674C1.19739 9.47001 1.50619 9.84474 2.1238 10.5942Z" stroke="black" stroke-width="2" stroke-linecap="round" stroke-linejoin="round"/>
</svg>
